<svg width="254" height="129" viewBox="0 0 254 129" fill="none" xmlns="http://www.w3.org/2000/svg">
<path d="M226.15 17.88C226.19 21.19 228.5 23.84 231.62 24.33C198.39 43.58 156.41 41.05 120.51 49.54C112.81 57.38 106.29 67.7 96.1402 73.18C91.5702 76.1 81.9502 81.04 86.4302 73.55C98.0502 60.63 113.32 21.41 131.7 23.77C163.93 23.19 195.35 17.32 225.47 5.36C229.87 3.46 235.87 4.01 235.47 10.22C230.73 9.15 226.05 13.03 226.16 17.88H226.15Z" fill="black"/>
<path d="M10.4903 59.27C38.0103 60.14 65.7303 52.41 91.8103 44C101.79 41.94 105.33 31.98 107.87 23.15C108.62 15.35 99.9603 18.46 95.6003 20.37C66.1103 32.03 35.3003 37.19 3.77029 38.01C-4.89971 37.26 7.41029 57.34 10.4903 59.27Z" fill="black"/>
<path d="M50.0302 0.269998C67.7902 0.369998 63.3902 26.75 47.6802 26C30.7902 25.44 34.2202 -0.440002 50.0302 0.269998Z" fill="black"/>
<path d="M234.29 4.36C218.58 3.59 215 29.56 231.95 30.1C247.65 30.84 252.06 4.46 234.29 4.36ZM232.55 24.41C223.17 24.13 225.02 9.66 233.86 10.05C243.68 10.03 241.38 24.83 232.55 24.41Z" fill="black"/>
<path d="M15.2017 90.9091H23.9091L31.2955 108.92H31.6364L39.0227 90.9091H47.7301V120H40.8835V102.131H40.642L33.6534 119.815H29.2784L22.2898 102.031H22.0483V120H15.2017V90.9091ZM81.6084 120H74.0516L83.8669 90.9091H93.2277L103.043 120H95.4862L88.6538 98.2386H88.4266L81.6084 120ZM80.5999 108.551H96.3953V113.892H80.5999V108.551ZM129.375 120V90.9091H141.392C143.57 90.9091 145.45 91.3021 147.031 92.0881C148.622 92.8646 149.849 93.982 150.71 95.4403C151.572 96.8892 152.003 98.608 152.003 100.597C152.003 102.614 151.563 104.328 150.682 105.739C149.801 107.14 148.551 108.21 146.932 108.949C145.313 109.678 143.395 110.043 141.179 110.043H133.58V104.503H139.872C140.933 104.503 141.818 104.366 142.529 104.091C143.248 103.807 143.793 103.381 144.162 102.812C144.531 102.235 144.716 101.496 144.716 100.597C144.716 99.697 144.531 98.9536 144.162 98.3665C143.793 97.7699 143.248 97.3248 142.529 97.0312C141.809 96.7282 140.923 96.5767 139.872 96.5767H136.406V120H129.375ZM145.753 106.705L152.997 120H145.327L138.225 106.705H145.753ZM179.06 120V90.9091H199.344V96.6193H186.091V102.585H198.307V108.31H186.091V114.29H199.344V120H179.06ZM251.706 90.9091V120H245.74L234.163 103.21H233.978V120H226.947V90.9091H232.998L244.447 107.67H244.688V90.9091H251.706Z" fill="black"/>
</svg>
